<svg xmlns="http://www.w3.org/2000/svg" width="302" height="123" viewBox="0 0 302 123">
  <g id="logoBCT" transform="translate(-398 -155)">
    <g id="logoBCT-2" data-name="logoBCT" transform="translate(248 74)">
      <text id="bct." transform="translate(288 173)" fill="#cb4335" font-size="88" font-family="Poppins-Regular, Poppins"><tspan x="0" y="0">bct.</tspan></text>
      <g id="Group_94" data-name="Group 94" transform="translate(150 87.858)">
        <g id="logo">
          <path id="Path_1" data-name="Path 1" d="M46.94-134.382a51.594,51.594,0,0,0-25.715,14.694c-5.427,5.343-7.514,8.182-10.186,13.859C1.606-86.292,3.609-65.67,16.634-48.3,23.48-39.121,35.419-31.44,46.773-28.768c6.93,1.67,19.119,1.67,25.464.084,19.536-4.926,35.483-20.872,40.075-40.242,1.92-7.931,1.419-21.791-1.085-29.472-3.757-11.521-12.941-23.21-23.126-29.388C76.161-135.05,59.8-137.721,46.94-134.382Zm9.017,2.171c-2.087,1.169-2.087,1.169-.167,1.252,1,0,1.837.334,1.837.835,0,.417-.751.835-1.67.835s-1.67.417-1.67.918.751.751,1.67.5,1.92-.083,2.171.334-.918.751-2.5.751c-2.922,0-3.006-.083-3.006-3.339s.083-3.34,2.755-3.34l2.672.083Zm16.7,1.169c1,2,.334,4.007-1.837,5.176-1.336.751-2.087.584-3.423-.835-1.5-1.419-1.586-2-.751-3.84A3.386,3.386,0,0,1,72.655-131.042Zm-24.212.083a.824.824,0,0,1-1,.751c-2.338-.25-3.173.167-3.173,1.67,0,2.087,1.085,2.755,3.006,2,1.336-.5,1.336-.584-.167-1.169s-1.5-.584,0-1.169a1.68,1.68,0,0,1,2,2.672c-1.085,1.336-4.174,1.419-5.51.083-2.254-2.254-.5-5.677,2.922-5.677C47.608-131.793,48.443-131.376,48.443-130.959Zm32.227,2.171c1.5,1.252,1.5,1.252-.25.751-1.169-.334-1.92-.167-1.92.334a.914.914,0,0,0,.835.918.858.858,0,0,1,.835.918c0,.5-.751.668-1.67.334-1.169-.417-1.67-.167-1.67.751,0,.751-.334,1.336-.835,1.336-1.169,0-1-1.336.417-4.174C77.914-130.458,78.415-130.625,80.67-128.788Zm-43.331,1.252c-2.087,1.169-1.837,2.672.25,1.586s2.171-.167.25,1.336c-2,1.419-.835,2.421,1.336,1.169,1-.5,1.753-.584,1.753-.167,0,.751-4.174,3.006-4.592,2.5-.083-.167-.835-1.419-1.586-2.922-1.336-2.672-1.336-2.672.918-3.924C38.174-129.205,39.76-128.871,37.339-127.536Zm31.392,3.673a42.877,42.877,0,0,1,21.54,12.106c8.516,8.432,12.44,18.034,12.44,30.557A41.96,41.96,0,0,1,90.1-50.893,41.96,41.96,0,0,1,59.8-38.286c-12.523,0-22.041-3.924-30.807-12.607C13.461-66.422,11.708-89.966,24.9-107.415A42.983,42.983,0,0,1,68.731-123.862Zm23.377,1.586c1.67,1.336,1.837,2.171.334,2.171a4.821,4.821,0,0,0-2.672,1.67c-2.338,2.588-3.256,2-1.252-.835,1-1.336,1.5-2.839,1.252-3.34C89.018-123.779,90.354-123.612,92.107-122.276Zm-60.2,3.172c1.67-1.67,2.672-1.085,1.085.668a5.163,5.163,0,0,1-2.254,1.67c-1.169,0-3.924-3.59-3.924-5.009,0-.751.751-.334,2,1.252C30.409-118.6,31.077-118.268,31.912-119.1Zm66.958,3.34c1.586,2.254.835,3.34-.835,1.169-.584-.918-1.419-1.336-1.753-1.085-.334.334-.083,1.085.417,1.586,1.67,1.67,1.085,2.672-.584,1.169-.918-.835-1.837-1.085-2.087-.668s.083,1.252.751,1.837a3.441,3.441,0,0,1,1.252,1.92c0,.584-1,0-2.171-1.252l-2.254-2.171,2.421-2.171C97.033-118.018,97.284-118.018,98.87-115.764ZM25.9-113.843c.584-.668,1.252-1.085,1.5-.835s-.25,1.169-1.085,2.087l-1.5,1.67-2.421-2.254c-1.252-1.252-2.338-2.588-2.338-3.089,0-.417,1.085.25,2.338,1.5C24.565-112.758,24.9-112.675,25.9-113.843Zm-5.176,3.924c2.5,2.5,0,6.262-3.507,5.343-2.421-.584-3.34-2.588-2.171-4.759C16.049-111.088,19.222-111.422,20.725-109.919Zm83.489,1.67c1.252,1.252,1.336,3.173.167,3.173-.417,0-.835-.5-.835-1.169,0-1.92-1.252-2.254-3.006-.918-1.586,1.252-1.586,1.252,0,2.5,1.837,1.419,1.419,2.421-.584,1.586-1.837-.668-2.421-2.672-1.419-4.592C99.538-109.418,102.711-109.752,104.213-108.25Zm-91.587,7.681c-1.336,1.586-.5,3.006,1.67,3.006,1.336,0,1.586-.417,1.169-1.67-.584-1.92,1.085-2.338,1.753-.417,1.169,2.922-3.84,5.093-6.178,2.755-1.336-1.336-1.252-2.839.334-4.425C13.044-102.906,14.046-102.322,12.626-100.569Zm94.593.835c-1.67,1.252-.918,3.173.918,2.421.668-.25,1.252-.083,1.252.417s-1.169,1.252-2.588,1.753c-3.256,1.169-4.091,1.169-4.091.084,0-.5.584-.835,1.336-.835,1.586,0,1.085-2-.584-2.171-2.755-.25-2.672-.5.5-1.92C107.553-101.654,109.557-101.4,107.219-99.734Zm3.84,8.766c0,.5-.835,1.419-1.837,2.087l-1.837,1.336h2.421c3.173,0,1.753,1.5-1.67,1.67-4.007.25-4.174.084-2-2.254,1.586-1.753,1.753-2.087.5-1.67a3.211,3.211,0,0,1-2.5,0c-.584-.334-.167-.835,1.085-1.169C108.3-91.8,111.059-91.8,111.059-90.967ZM13.8-85.875c1.085,3.507-2.254,5.761-5.343,3.59-2.254-1.5-2.254-3.173,0-4.675C10.539-88.463,13.127-87.878,13.8-85.875ZM110.225-81.7c1,0,1.837,2.839,1.169,4.508-1,2.588-7.013,1.169-7.013-1.67,0-1.67,2.588-3.84,3.924-3.34A7.266,7.266,0,0,0,110.225-81.7ZM14.213-77.609c0,.835-5.928,1.753-7.1,1-.417-.25.334-.751,1.67-1C12.543-78.444,14.213-78.444,14.213-77.609Zm-.5,4.759c2.171.835,1.67,4.425-.835,5.343a10.719,10.719,0,0,1-3.34.835c-2.087,0-.5-1.5,2.254-2.087,3.674-.835,2.5-2.588-1.419-2.254-3.34.334-3.256-.918.083-1.753a18.335,18.335,0,0,0,1.837-.5A12.258,12.258,0,0,1,13.712-72.85Zm96.93,2.171c.584.584-.167.751-2.421.417-2.672-.417-3.256-.25-3.59,1.085-.25.918-.835,1.67-1.252,1.67-.5,0-.584-.584-.334-1.336a10.1,10.1,0,0,0,.5-2.588c0-1,.668-1.169,3.173-.668A8.57,8.57,0,0,1,110.642-70.68ZM17.886-62.247c1,2.672-.5,4.759-3.34,4.759-2.087,0-4.091-2.755-3.173-4.341.417-.584.835-.334,1.252.835.751,2.087,2.588,2.421,4.007.668.751-.835.584-1.419-.5-2.254-1.252-1-1.336-1-.835.25.25.835.167,1.5-.167,1.5-1.252,0-1.837-2.755-.751-3.507C15.966-65.336,17.051-64.669,17.886-62.247Zm89-.668a3.409,3.409,0,0,1-1.419,4.926,3.593,3.593,0,0,1-4.842-4.592C101.291-64.5,105.382-64.752,106.885-62.915ZM21.142-54.984c-.334,1.169.083,1.837,1.5,2.338,2.254.835,1.5,1.5-2.839,2.254-3.59.668-3.673.334-1.336-3.423C20.391-56.988,21.81-57.572,21.142-54.984Zm80.233.751c1.169,1.252,1.252,2,.5,3.34a3.01,3.01,0,0,1-2.338,1.753c-1.252-.083-1.252-.167.167-1.252a2.432,2.432,0,0,0,1.085-2.5c-.668-1.67-3.924-1.67-3.924.083,0,.751.417,1,.918.668.584-.334.835-.083.584.584a1.532,1.532,0,0,1-3.006-.334C94.7-55.4,98.87-57.071,101.375-54.232ZM28.823-47.47c1.5,1.67,1.5,1.753-.584,3.924-3.59,3.59-7.18.751-4.425-3.423C25.567-49.557,26.819-49.724,28.823-47.47ZM95.03-45.8c1,0,1.837.334,1.837.835,0,.417-.751.835-1.67.835-1.169,0-1.67.584-1.67,1.753,0,.918-.334,1.419-.835,1.169a3.529,3.529,0,0,1-.835-2.5c0-1.085-.334-2.254-.835-2.5a1.948,1.948,0,0,1-.835-1.419c0-.5.668-.334,1.5.417A5.414,5.414,0,0,0,95.03-45.8ZM37.422-40.039c1.336.835,1,2.672-.584,3.924-.918.751-1.5.668-2.338-.167-1.336-1.336-1.419-3.423,0-3.924C36-40.874,36.254-40.874,37.422-40.039Zm47.422,1.753c0,2.087-2.338,3.423-3.84,2.171-1.586-1.169-1.586-3.256,0-3.924C82.924-40.791,84.844-39.956,84.844-38.286ZM48.86-34.78c-.751,3.256-1.085,4.007-2.087,4.007-.5,0-.5-.835,0-2.087.668-1.753.5-2.087-.668-2.087-1.252-.083-1.252-.167.167-1.252C48.777-38.119,49.445-37.7,48.86-34.78ZM72.571-36.7c1,.668,1.085,1.169.25,3.006-.918,2-.918,2.254.25,1.837.668-.334,1.252-.167,1.252.25,0,.918-4.007,2.087-4.759,1.336-.25-.25.083-1.169.835-2,1.586-1.753,1.837-3.507.584-3.507a.914.914,0,0,0-.835.918c0,.417-.417.584-.835.334-.668-.417-.584-.918.083-1.753C70.484-37.618,70.985-37.7,72.571-36.7ZM57.209-32.442c0,2.171-.417,3.006-1.586,3.173a3.287,3.287,0,0,1-2.5-.668c-.668-.835-.5-1,1-.584,2.254.5,2.421-.334.167-1.753-2.087-1.252-1.252-3.673,1.169-3.34C56.875-35.448,57.209-34.78,57.209-32.442Zm7.347-.25c-1.837,3.924-1.837,4.007-2.338,3.423-.25-.25-.083-1.419.334-2.672.751-1.753.668-2.171-.334-2.171-.668,0-1.252-.417-1.252-.835,0-.5,1.085-.835,2.5-.835h2.5Z" transform="translate(-5.174 135.805)" fill="#cb4335"/>
          <path id="Path_2" data-name="Path 2" d="M80.278-128.655a2.288,2.288,0,0,0,.5,2.254c1.169,1.169,3.924-1.252,3.089-2.672A2.062,2.062,0,0,0,80.278-128.655Z" transform="translate(-17.556 134.837)" fill="#cb4335"/>
          <path id="Path_3" data-name="Path 3" d="M54.249-117.726a7.423,7.423,0,0,0-1.336,4.508c0,2.922-.25,3.256-3.34,4.258-3.256,1.085-3.507,1-5.677-1.085-1.336-1.252-2.839-2.254-3.423-2.254-1.5,0-11.772,10.019-11.772,11.6,0,.668,1,2.254,2.254,3.59l2.171,2.254-1.419,3.757c-1.419,3.673-1.586,3.757-5.343,4.007l-3.924.25-.25,7.848c-.167,4.592.083,8.182.584,8.683s2.421,1.085,4.341,1.336c3.006.417,3.59.835,4.675,3.674,1.252,3.089,1.252,3.256-.918,5.51C29.7-58.532,28.7-56.946,28.7-56.278c0,1.586,10.1,11.6,11.688,11.6.668,0,2.171-1,3.423-2.171,2.254-2.171,2.421-2.171,5.51-.918,2.839,1.085,3.173,1.586,3.423,4.425.417,5.009,1.085,5.343,9.852,5.343,8.6,0,9.1-.25,8.766-5.093-.167-2.922,0-3.173,3.507-4.508,3.673-1.419,3.673-1.419,6.011.751,1.252,1.169,2.839,2.171,3.507,2.171,1.586,0,10.937-8.933,11.6-11.02.334-1.169-.25-2.421-1.837-4.091-2.171-2.254-2.254-2.5-1.169-5.761,1-3.089,1.336-3.34,4.258-3.34,4.842,0,5.761-1.5,5.761-9.6,0-7.263-1.169-10.1-3.757-9.017a4.393,4.393,0,0,1-5.844-3.089c-.334-1.336-.918-2.755-1.419-3.006-.417-.334.334-1.67,1.837-3.256,1.92-1.92,2.5-3.256,2.171-4.425-.668-2.087-10.019-11.021-11.6-11.021a6.563,6.563,0,0,0-3.089,2.087c-2.338,2.421-3.173,2.5-7.013.668-2.672-1.252-2.922-1.753-3.173-5.176l-.25-3.84-7.6-.25C57.088-118.978,55.335-118.811,54.249-117.726Zm13.692,6.512v3.59l5.594,2.254,5.677,2.171,2.087-2a8.622,8.622,0,0,1,3.006-2.087c.417,0,2.254,1.5,4.091,3.34l3.256,3.34L89.4-98.273c-2.254,2.338-2.922,4.675-1.5,5.594.417.25,1.419,2.338,2.171,4.592l1.419,4.174h7.43l-.25,5.176-.25,5.26-3.59.417c-3.256.334-3.757.751-4.759,3.34-.584,1.586-1.586,4.174-2.171,5.594-1,2.5-.918,2.839,1.169,5.093L91.4-56.612,87.9-53.189a25.25,25.25,0,0,1-3.924,3.507c-.751,0-4.341-3.59-4.341-4.341,0-.334,1.169-.668,2.5-.668,2.839,0,2.839,0,1.586-2.755-.751-1.67-.584-2.588,1.252-5.26,4.341-6.679,5.928-16.2,3.84-23.711-1-3.757-5.51-10.854-6.846-10.854-.5,0-.167.835.835,1.92C86.393-91.51,88.4-85.666,88.4-78.4c0,5.844-.334,7.347-2.5,11.6-1.336,2.672-2.922,5.009-3.423,5.176-.417.167-1.753-1.837-2.839-4.508-1.085-2.588-2.087-4.341-2.254-3.84-.25.584,1,3.84,2.588,7.43,1.67,3.507,3.006,6.512,3.006,6.679s-1.837.334-4.174.334c-2.254,0-4.174-.334-4.174-.751a4.069,4.069,0,0,0-1.336-2.087c-1-1.085-3.34-1.336-11.187-1.336-9.685,0-10.019.083-11.354,2.087-1.169,1.753-2,2.087-5.51,2.087-3.006,0-4.091-.25-3.757-1.085.25-.5,1.67-3.757,3.173-7.1C46.9-68.8,47.487-69.553,48.155-68.3c1.336,2.338,2.588,2.839,3.59,1.419C52.5-67.883,55-68.133,63.6-68.3c10.436-.25,10.937-.167,11.271,1.419.25,1.085.417.751.5-.918.083-1.837.584-2.839,1.67-3.173,2.421-.751,4.759-4.592,3.34-5.51a3.1,3.1,0,0,0-2.672.25c-1.5.751-3.006-.167-3.089-2,0-1.169-3.423-8.432-3.757-8.015-.25.25.5,2.672,1.67,5.51,2.755,6.846,2.588,7.514-.5,1.5A16.093,16.093,0,0,0,68.7-83.913c-.592-.434.294,1.931,2.166,5.928,2.087,4.258,2.254,5.176,1.252,5.844-4.174,2.588-16.447,3.34-18.7,1.085a4.309,4.309,0,0,1-1.336-2.672c0-2.5,4.174-10.52,6.93-13.275L61.6-89.757l1.92,1.837c2.672,2.5,4.258.918,1.837-1.753l-1.837-1.92,1.753-1.753L67.023-95.1l.835,2.171a6.8,6.8,0,0,0,1.753,2.755c.584.334.417-.584-.334-2.338-1.085-2.755-1.085-2.922.584-3.84,1.837-.918,1.837-.918-.167-.668-1.67.167-2.171-.417-3.256-3.423-.668-2-.918-3.84-.668-4.091.918-.918,8.1,1.67,11.438,4.091,1.92,1.336,4.19,2.882,4.441,2.632.751-.751-6.778-5.8-10.452-6.89-6.846-2-7.347-2.338-7.931-5.51-.668-3.757-1.67-3.757-2.588.167-.668,2.922-1.085,3.256-5.844,4.926-9.351,3.173-14.193,7.43-17.867,15.7-3.674,8.432-2.755,18.952,2.5,26.048,2.171,3.089,2.254,3.59,1.252,5.427-1.67,3.006-1.5,3.256,1.92,3.256h3.173L43.062-52.02,40.39-49.348l-3.757-3.673L32.876-56.7l2.5-2.588,2.588-2.672L35.8-66.464a31.886,31.886,0,0,1-2.087-5.594c0-.668-1.336-1-3.757-1H26.2V-83.913h3.34c3.256,0,3.34-.084,5.844-5.594l2.5-5.594-2.5-2.588-2.5-2.588,3.757-3.673,3.757-3.674,1.837,1.753c3.173,2.839,3.59,2.839,9.351.25,5.427-2.5,5.51-2.588,5.51-5.844v-3.34H67.942Zm-3.34,8.6,2,6.345-2,1.586c-2.672,2-2.672,2-4.926-.417l-1.92-2,1.92-5.928c1.085-3.256,2.171-5.928,2.421-5.928C62.431-108.959,63.517-106.121,64.6-102.614Zm-5.844-1.336c0,1.67-2.5,6.93-3.006,6.429-.835-.835-3.674,1-3.674,2.338a2.651,2.651,0,0,0,1.419,1.92c1.252.751,1.085,1.753-2.171,10.269-2,5.26-3.924,9.852-4.341,10.269-.417.5-1.586,0-2.922-1.252-2.171-1.92-2.171-1.92-1.252-.167a6.939,6.939,0,0,0,2.254,2.588c1.085.584,1,1.252-.668,5.51L42.561-61.12l-1.92-2.421c-4.007-5.093-5.677-15.529-3.59-23.043C38.387-91.343,42.9-97.438,47.4-100.444,52.663-103.95,58.758-105.787,58.758-103.95Zm-.083,12.44c.918.584.584,1.5-1.753,4.425a34.24,34.24,0,0,0-4.258,6.095c-1.92,3.59-1.753,1.336.334-3.423.918-2.254,2-4.926,2.421-6.011C56.253-92.429,56.921-92.6,58.674-91.51Zm14.611,34.9c.668,1.67.083,2.254-3.59,3.507-3.507,1.169-10.353,1.169-14.444.083-3.423-1-4.425-2-3.674-3.757.334-1,2.5-1.252,10.854-1.252C71.281-58.031,72.867-57.864,73.285-56.612ZM52.246-52.938c5.427,2.171,13.776,2.338,19.035.334,5.928-2.171,6.679-2.338,6.679-1.419,0,.417-.668,1-1.419,1.252-7.681,2.421-8.182,2.755-8.6,6.6l-.417,3.59-5.176.25-5.26.25v-3.256c0-3.757-.584-4.341-6.011-6.345-3.757-1.419-5.928-3.006-4.091-3.006A35.7,35.7,0,0,1,52.246-52.938Z" transform="translate(-7.975 133.008)" fill="#cb4335"/>
          <path id="Path_4" data-name="Path 4" d="M63-43.33c0,1.169.584,1.67,1.753,1.67,1.252,0,1.586-.334,1.252-1.336a13.053,13.053,0,0,1-.5-1.67c0-.167-.584-.334-1.252-.334S63-44.249,63-43.33Z" transform="translate(-14.722 120.812)" fill="#cb4335"/>
          <path id="Path_5" data-name="Path 5" d="M68-43.33c0,.918.5,1.67,1.085,1.67s1.085-.751,1.085-1.67S69.67-45,69.085-45,68-44.249,68-43.33Z" transform="translate(-15.548 120.812)" fill="#cb4335"/>
          <path id="Path_6" data-name="Path 6" d="M72-43.33c0,.918.417,1.67.835,1.67.5,0,.835-.751.835-1.67S73.336-45,72.835-45C72.417-45,72-44.249,72-43.33Z" transform="translate(-16.208 120.812)" fill="#cb4335"/>
          <path id="Path_7" data-name="Path 7" d="M76.2-43.256c0,1.169.167,1.586.417,1a4.407,4.407,0,0,0,0-2.087C76.367-44.842,76.2-44.425,76.2-43.256Z" transform="translate(-16.902 120.738)" fill="#cb4335"/>
          <path id="Path_8" data-name="Path 8" d="M18.185-102.563a2.673,2.673,0,0,0,2.171,1.753c1.586.25,1.92-.083,1.67-1.252a2.673,2.673,0,0,0-2.171-1.753C18.269-104.066,17.935-103.732,18.185-102.563Z" transform="translate(-7.31 130.536)" fill="#cb4335"/>
          <path id="Path_9" data-name="Path 9" d="M9.371-75.719a1.765,1.765,0,0,0,.584,2.171c1.67,1,2.839.417,2.839-1.419A1.781,1.781,0,0,0,9.371-75.719Z" transform="translate(-5.843 126.067)" fill="#cb4335"/>
          <path id="Path_10" data-name="Path 10" d="M126.371-68.719a1.765,1.765,0,0,0,.584,2.171c1.67,1,2.839.417,2.839-1.419A1.781,1.781,0,0,0,126.371-68.719Z" transform="translate(-25.161 124.911)" fill="#cb4335"/>
          <path id="Path_11" data-name="Path 11" d="M121.363-47.735a1.989,1.989,0,0,0,1.753,2.922c1.753,0,2.338-1.586,1.252-2.922C123.033-49.322,121.947-49.322,121.363-47.735Z" transform="translate(-24.328 121.46)" fill="#cb4335"/>
          <path id="Path_12" data-name="Path 12" d="M22-36.165a.9.9,0,0,0,.835.835.837.837,0,0,0,.835-.835A.789.789,0,0,0,22.835-37,.837.837,0,0,0,22-36.165Z" transform="translate(-7.952 119.491)" fill="#cb4335"/>
          <path id="Path_13" data-name="Path 13" d="M30.184-29.065A2.385,2.385,0,0,0,31.6-27.646c.668.25,1-.083.751-.751a2.386,2.386,0,0,0-1.419-1.419C30.267-30.067,29.933-29.733,30.184-29.065Z" transform="translate(-9.29 118.319)" fill="#cb4335"/>
          <path id="Path_14" data-name="Path 14" d="M28.473-26.165a1.95,1.95,0,0,0,1.336.835c.5,0,.584-.417.334-.835A1.7,1.7,0,0,0,28.807-27C28.306-27,28.222-26.666,28.473-26.165Z" transform="translate(-8.999 117.84)" fill="#cb4335"/>
          <path id="Path_15" data-name="Path 15" d="M64.484-14.165c-.25.417.083.835.835.835s1.085-.417.835-.835c-.25-.5-.668-.835-.835-.835S64.734-14.666,64.484-14.165Z" transform="translate(-14.953 115.858)" fill="#cb4335"/>
        </g>
        <path id="Path_16" data-name="Path 16" d="M633.728,323.8l6-5.815-.871,3.412,8.98-10.678.26,2.469,11.008-14.451-9.371,8.287.9-3.667-9.819,11.1.283-3.737Z" transform="translate(-581.255 -267.958)" fill="#cb4335"/>
      </g>
    </g>
  </g>
</svg>
