<svg xmlns="http://www.w3.org/2000/svg" width="2241.84" height="497.1" viewBox="0 0 2241.84 497.1">
  <g id="logoText" transform="translate(6171.84 7752.1)">
    <g id="Group_94" data-name="Group 94" transform="translate(-6171.84 -7752.099)">
      <g id="logo" transform="translate(0 0)">
        <path id="Path_1" data-name="Path 1" d="M190.323-129.495C144.43-118.021,110.01-98.406,76.33-64.356,52.273-40.669,43.021-28.085,31.177-2.918c-41.822,86.605-32.94,178.022,24.8,255,30.349,40.712,83.274,74.762,133.609,86.605,30.719,7.4,84.755,7.4,112.883.37,86.605-21.836,157.3-92.527,177.652-178.392,8.512-35.16,6.292-96.6-4.811-130.648-16.655-51.075-57.367-102.89-102.52-130.278C319.861-132.455,247.32-144.3,190.323-129.495Zm39.972,9.623c-9.253,5.181-9.253,5.181-.74,5.552,4.441,0,8.142,1.48,8.142,3.7,0,1.85-3.331,3.7-7.4,3.7s-7.4,1.85-7.4,4.071,3.331,3.331,7.4,2.221,8.513-.37,9.623,1.48-4.071,3.331-11.1,3.331c-12.954,0-13.324-.37-13.324-14.8s.37-14.8,12.214-14.8l11.843.37Zm74.021,5.181c4.441,8.883,1.48,17.765-8.142,22.947-5.922,3.331-9.253,2.591-15.175-3.7-6.662-6.292-7.032-8.883-3.331-17.025C282.85-123.943,298.395-125.053,304.316-114.69Zm-107.331.37a3.654,3.654,0,0,1-4.441,3.331c-10.363-1.11-14.064.74-14.064,7.4,0,9.252,4.811,12.214,13.324,8.883,5.922-2.221,5.922-2.591-.74-5.181s-6.662-2.591,0-5.182c8.142-3.7,14.8,4.811,8.883,11.843-4.811,5.922-18.505,6.292-24.427.37-9.993-9.993-2.221-25.167,12.954-25.167C193.284-118.021,196.985-116.171,196.985-114.32ZM339.847-104.7c6.662,5.552,6.662,5.552-1.11,3.331-5.181-1.481-8.512-.74-8.512,1.48a4.053,4.053,0,0,0,3.7,4.071,3.8,3.8,0,0,1,3.7,4.072c0,2.221-3.331,2.961-7.4,1.48-5.182-1.851-7.4-.74-7.4,3.331,0,3.331-1.481,5.922-3.7,5.922-5.182,0-4.441-5.922,1.85-18.505C327.633-112.1,329.854-112.84,339.847-104.7ZM147.761-99.146c-9.253,5.181-8.142,11.843,1.11,7.032s9.623-.74,1.11,5.922c-8.883,6.292-3.7,10.733,5.922,5.182,4.441-2.221,7.772-2.591,7.772-.74,0,3.331-18.505,13.324-20.356,11.1-.37-.74-3.7-6.291-7.032-12.954-5.922-11.843-5.922-11.843,4.071-17.4C151.462-106.548,158.494-105.068,147.761-99.146Zm139.16,16.285c34.79,7.4,66.989,25.167,95.488,53.666,37.751,37.381,55.146,79.943,55.146,135.459,0,51.445-19.246,97.708-55.886,134.349S298.765,296.5,247.32,296.5c-55.516,0-97.708-17.395-136.57-55.886C41.91,171.773,34.138,67.4,92.615-9.95,138.878-71.018,212.53-98.776,286.922-82.861Zm103.63,7.032c7.4,5.921,8.142,9.623,1.48,9.623-2.961,0-8.142,3.331-11.843,7.4-10.363,11.473-14.434,8.883-5.552-3.7,4.441-5.922,6.662-12.584,5.552-14.8C376.858-82.491,382.779-81.751,390.552-75.829ZM123.7-61.765c7.4-7.4,11.843-4.811,4.811,2.961-3.7,4.071-8.142,7.4-9.993,7.4-5.181,0-17.4-15.915-17.4-22.206,0-3.331,3.331-1.481,8.883,5.551C117.042-59.545,120-58.064,123.7-61.765Zm296.826,14.8c7.032,9.993,3.7,14.8-3.7,5.181-2.591-4.071-6.292-5.922-7.772-4.811-1.48,1.48-.37,4.811,1.85,7.032,7.4,7.4,4.811,11.843-2.591,5.181-4.071-3.7-8.142-4.811-9.253-2.961s.37,5.552,3.331,8.142,5.552,6.292,5.552,8.512c0,2.591-4.441,0-9.623-5.552l-9.993-9.623,10.733-9.623C412.388-56.954,413.5-56.954,420.53-46.961ZM97.056-38.448c2.591-2.961,5.552-4.811,6.662-3.7s-1.11,5.182-4.811,9.253l-6.662,7.4L81.512-35.487C75.96-41.039,71.149-46.961,71.149-49.181c0-1.85,4.811,1.11,10.363,6.662C91.135-33.637,92.615-33.267,97.056-38.448ZM74.11-21.053c11.1,11.1,0,27.758-15.545,23.687C47.832.043,43.761-8.84,48.942-18.462,53.384-26.235,67.448-27.715,74.11-21.053Zm370.108,7.4c5.552,5.552,5.922,14.064.74,14.064-1.851,0-3.7-2.221-3.7-5.182,0-8.512-5.552-9.993-13.324-4.071-7.032,5.552-7.032,5.552,0,11.1C436.075,8.555,434.224,13,425.342,9.3,417.2,6.335,414.609-2.548,419.05-11.06,423.491-18.832,437.555-20.313,444.217-13.651ZM38.209,20.4c-5.922,7.032-2.221,13.324,7.4,13.324,5.922,0,7.032-1.85,5.181-7.4C48.2,17.808,55.6,15.958,58.565,24.47,63.747,37.424,41.54,47.047,31.177,36.684c-5.922-5.922-5.552-12.584,1.48-19.616C40.06,10.036,44.5,12.627,38.209,20.4Zm419.332,3.7c-7.4,5.552-4.071,14.064,4.071,10.733,2.961-1.11,5.552-.37,5.552,1.851s-5.181,5.552-11.473,7.772c-14.434,5.181-18.135,5.181-18.135.37,0-2.221,2.591-3.7,5.922-3.7,7.032,0,4.812-8.883-2.591-9.623-12.213-1.11-11.843-2.221,2.221-8.512C459.021,15.587,467.9,16.7,457.541,24.1Zm17.025,38.861c0,2.221-3.7,6.292-8.142,9.253l-8.143,5.922h10.733c14.064,0,7.772,6.662-7.4,7.4-17.765,1.11-18.505.37-8.882-9.993,7.032-7.772,7.772-9.253,2.221-7.4-4.071,1.48-8.883,1.48-11.1,0-2.591-1.48-.74-3.7,4.811-5.181C462.352,59.26,474.566,59.26,474.566,62.961ZM43.391,85.538C48.2,101.082,33.4,111.075,19.7,101.452c-9.993-6.662-9.993-14.064,0-20.726C28.957,74.064,40.43,76.655,43.391,85.538Zm427.474,18.506c4.441,0,8.142,12.583,5.181,19.986-4.441,11.473-31.089,5.182-31.089-7.4,0-7.4,11.473-17.025,17.395-14.8C465.313,102.933,469.014,104.043,470.865,104.043ZM45.241,122.178c0,3.7-26.278,7.772-31.459,4.441-1.851-1.11,1.48-3.331,7.4-4.441C37.839,118.477,45.241,118.477,45.241,122.178Zm-2.221,21.1c9.623,3.7,7.4,19.616-3.7,23.687-5.181,2.221-11.843,3.7-14.8,3.7-9.253,0-2.221-6.662,9.993-9.253,16.285-3.7,11.1-11.473-6.292-9.993-14.8,1.48-14.434-4.071.37-7.772,4.071-1.11,7.772-1.851,8.142-2.221A54.349,54.349,0,0,1,43.021,143.275ZM472.715,152.9c2.591,2.591-.74,3.331-10.733,1.851-11.843-1.851-14.434-1.111-15.915,4.811-1.11,4.071-3.7,7.4-5.552,7.4-2.221,0-2.591-2.591-1.481-5.922a44.774,44.774,0,0,0,2.221-11.473c0-4.441,2.961-5.181,14.064-2.961C462.723,147.716,470.865,150.677,472.715,152.9ZM61.526,190.278c4.441,11.843-2.221,21.1-14.8,21.1-9.253,0-18.135-12.213-14.064-19.245,1.851-2.591,3.7-1.48,5.552,3.7,3.331,9.253,11.473,10.733,17.765,2.961,3.331-3.7,2.591-6.292-2.221-9.993-5.552-4.441-5.922-4.441-3.7,1.11,1.11,3.7.74,6.662-.74,6.662-5.552,0-8.142-12.214-3.331-15.544C53.014,176.584,57.825,179.545,61.526,190.278Zm394.535-2.961c5.182,6.292,1.851,18.875-6.292,21.836-13.694,5.551-25.908-6.292-21.466-20.356C431.263,180.285,449.4,179.175,456.061,187.317Zm-380.1,35.16c-1.48,5.181.37,8.142,6.662,10.363,9.993,3.7,6.662,6.662-12.584,9.993-15.915,2.961-16.285,1.48-5.922-15.174C72.629,213.595,78.921,211,75.96,222.478Zm355.673,3.331c5.181,5.552,5.552,8.883,2.221,14.8-2.221,4.441-6.662,7.772-10.363,7.772-5.552-.37-5.552-.74.74-5.552,4.071-2.961,5.922-7.772,4.811-11.1-2.961-7.4-17.395-7.4-17.395.37,0,3.331,1.85,4.441,4.071,2.961,2.591-1.48,3.7-.37,2.591,2.591-2.591,7.4-11.844,6.292-13.324-1.48C402.025,220.627,420.53,213.225,431.634,225.809ZM110.01,255.787c6.662,7.4,6.662,7.772-2.591,17.395C91.5,289.1,75.59,276.513,87.8,258.008,95.576,246.535,101.128,245.794,110.01,255.787Zm293.5,7.4c4.441,0,8.142,1.48,8.142,3.7,0,1.851-3.331,3.7-7.4,3.7-5.181,0-7.4,2.591-7.4,7.772,0,4.071-1.48,6.292-3.7,5.181-1.851-1.11-3.7-6.292-3.7-11.1s-1.48-9.993-3.7-11.1a8.635,8.635,0,0,1-3.7-6.292c0-2.221,2.961-1.48,6.662,1.851C392.4,260.6,399.064,263.189,403.505,263.189ZM148.131,288.727c5.922,3.7,4.441,11.844-2.591,17.4-4.071,3.331-6.662,2.961-10.363-.74-5.922-5.922-6.292-15.174,0-17.4C141.839,285.026,142.95,285.026,148.131,288.727ZM358.352,296.5c0,9.253-10.363,15.174-17.025,9.623-7.032-5.182-7.032-14.434,0-17.4C349.84,285.4,358.352,289.1,358.352,296.5ZM198.836,312.044c-3.331,14.434-4.811,17.765-9.253,17.765-2.221,0-2.221-3.7,0-9.253,2.961-7.772,2.221-9.253-2.961-9.253-5.552-.37-5.552-.74.74-5.552C198.466,297.239,201.427,299.09,198.836,312.044Zm105.11-8.513c4.441,2.961,4.811,5.182,1.11,13.324-4.071,8.883-4.071,9.993,1.11,8.143,2.961-1.481,5.552-.74,5.552,1.11,0,4.071-17.765,9.252-21.1,5.922-1.11-1.11.37-5.181,3.7-8.883,7.032-7.772,8.142-15.544,2.591-15.544a4.054,4.054,0,0,0-3.7,4.071c0,1.851-1.851,2.591-3.7,1.48-2.961-1.85-2.591-4.071.37-7.772C294.694,299.46,296.914,299.09,303.946,303.531Zm-68.1,18.875c0,9.623-1.851,13.324-7.032,14.064a14.571,14.571,0,0,1-11.1-2.961c-2.961-3.7-2.221-4.441,4.441-2.591,9.993,2.221,10.733-1.48.74-7.772-9.253-5.552-5.552-16.285,5.182-14.8C234.366,309.083,235.847,312.044,235.847,322.406Zm32.569-1.11c-8.142,17.4-8.142,17.765-10.363,15.174-1.11-1.11-.37-6.292,1.48-11.843,3.331-7.772,2.961-9.623-1.48-9.623-2.961,0-5.552-1.85-5.552-3.7,0-2.221,4.811-3.7,11.1-3.7h11.1Z" transform="translate(-5.174 135.805)" fill="#ee5e4f"/>
        <path id="Path_2" data-name="Path 2" d="M80.665-124.234a10.142,10.142,0,0,0,2.221,9.993c5.181,5.182,17.4-5.551,13.694-11.843C92.878-132.006,83.255-130.9,80.665-124.234Z" transform="translate(197.382 151.64)" fill="#ee5e4f"/>
        <path id="Path_3" data-name="Path 3" d="M164.488-113.809c-3.331,3.331-5.922,12.214-5.922,19.986,0,12.954-1.11,14.434-14.8,18.875-14.434,4.811-15.545,4.441-25.167-4.811-5.922-5.552-12.584-9.993-15.174-9.993-6.662,0-52.185,44.413-52.185,51.445,0,2.961,4.441,9.993,9.993,15.915L70.851-12.4,64.559,4.256C58.267,20.54,57.527,20.91,40.872,22.021l-17.4,1.11-1.11,34.79c-.74,20.356.37,36.27,2.591,38.491s10.733,4.811,19.246,5.922c13.324,1.851,15.915,3.7,20.726,16.285,5.552,13.694,5.552,14.434-4.071,24.427-5.182,5.552-9.623,12.584-9.623,15.544,0,7.032,44.783,51.445,51.815,51.445,2.961,0,9.623-4.441,15.174-9.623,9.993-9.623,10.733-9.623,24.427-4.071,12.584,4.811,14.064,7.032,15.174,19.616,1.85,22.207,4.811,23.687,43.673,23.687,38.121,0,40.342-1.11,38.861-22.577-.74-12.954,0-14.064,15.545-19.986,16.285-6.292,16.285-6.292,26.648,3.331,5.552,5.181,12.584,9.623,15.545,9.623,7.032,0,48.484-39.6,51.445-48.854,1.481-5.182-1.11-10.733-8.142-18.135-9.623-9.993-9.993-11.1-5.182-25.537,4.441-13.694,5.922-14.8,18.876-14.8,21.466,0,25.537-6.662,25.537-42.562,0-32.2-5.182-44.783-16.655-39.972-11.1,4.071-23.317-2.22-25.907-13.694C336.588.555,334-5.737,331.776-6.848c-1.85-1.481,1.48-7.4,8.142-14.434,8.513-8.513,11.1-14.434,9.623-19.616-2.961-9.253-44.413-48.854-51.445-48.854-2.591,0-8.883,4.071-13.694,9.253-10.363,10.733-14.064,11.1-31.089,2.961-11.843-5.552-12.954-7.772-14.064-22.947l-1.11-17.025-33.68-1.11C177.072-119.36,169.3-118.62,164.488-113.809Zm60.7,28.868v15.915l24.8,9.993L275.15-49.41l9.253-8.883c5.552-5.181,11.473-9.253,13.324-9.253s9.993,6.662,18.135,14.8l14.434,14.8L320.3-27.574c-9.993,10.363-12.954,20.726-6.662,24.8,1.851,1.11,6.292,10.363,9.623,20.356l6.292,18.505H362.5l-1.11,22.947-1.11,23.317L344.36,84.2c-14.434,1.48-16.655,3.331-21.1,14.8-2.591,7.032-7.032,18.506-9.623,24.8-4.441,11.1-4.071,12.584,5.182,22.577l10.363,10.733-15.545,15.174c-8.512,8.512-16.285,15.544-17.4,15.544-3.331,0-19.246-15.915-19.246-19.245,0-1.481,5.182-2.961,11.1-2.961,12.584,0,12.584,0,7.032-12.214-3.331-7.4-2.591-11.473,5.552-23.317,19.246-29.608,26.278-71.8,17.025-105.11-4.441-16.655-24.427-48.114-30.349-48.114-2.221,0-.74,3.7,3.7,8.512,15.915,17.025,24.8,42.932,24.8,75.132,0,25.907-1.481,32.569-11.1,51.445C298.837,123.8,291.8,134.163,289.584,134.9c-1.851.74-7.772-8.142-12.584-19.986-4.811-11.473-9.253-19.245-9.993-17.025-1.11,2.591,4.441,17.025,11.473,32.939,7.4,15.544,13.324,28.868,13.324,29.609s-8.142,1.48-18.505,1.48c-9.993,0-18.505-1.48-18.505-3.331s-2.591-6.292-5.922-9.253c-4.441-4.811-14.8-5.922-49.594-5.922-42.932,0-44.413.37-50.335,9.253-5.181,7.772-8.883,9.253-24.427,9.253-13.324,0-18.135-1.11-16.655-4.811,1.11-2.221,7.4-16.655,14.064-31.459,9.993-22.577,12.584-25.908,15.544-20.356,5.922,10.363,11.473,12.584,15.915,6.292,3.331-4.441,14.434-5.552,52.555-6.292,46.263-1.11,48.484-.74,49.965,6.292,1.11,4.811,1.85,3.331,2.221-4.071.37-8.142,2.591-12.584,7.4-14.064,10.733-3.331,21.1-20.356,14.8-24.427-2.591-1.48-8.142-1.11-11.844,1.11-6.662,3.331-13.324-.74-13.694-8.882,0-5.181-15.174-37.381-16.655-35.53-1.11,1.11,2.221,11.844,7.4,24.427,12.213,30.349,11.473,33.31-2.221,6.662-5.833-11.083-12.152-18.982-14.784-20.726-2.623-1.926,1.3,8.559,9.6,26.278,9.253,18.875,9.993,22.947,5.552,25.908-18.505,11.473-72.911,14.8-82.9,4.811-3.331-2.961-5.922-8.512-5.922-11.843,0-11.1,18.505-46.633,30.719-58.847l11.473-12.214,8.512,8.142c11.843,11.1,18.876,4.071,8.142-7.772L205.57,2.035l7.772-7.772,7.772-7.772,3.7,9.623c1.851,5.181,5.552,10.733,7.772,12.213,2.591,1.481,1.85-2.591-1.48-10.363C226.3-14.25,226.3-14.99,233.7-19.061c8.142-4.071,8.142-4.071-.74-2.961-7.4.74-9.623-1.85-14.434-15.174-2.961-8.882-4.071-17.025-2.961-18.135,4.071-4.071,35.9,7.4,50.7,18.135,8.513,5.922,18.575,12.778,19.686,11.667,3.331-3.331-30.049-25.731-46.333-30.543-30.349-8.883-32.57-10.363-35.16-24.427-2.961-16.655-7.4-16.655-11.473.74-2.961,12.954-4.811,14.434-25.907,21.836-41.452,14.064-62.918,32.939-79.2,69.58-16.285,37.381-12.214,84.014,11.1,115.473,9.623,13.694,9.993,15.915,5.552,24.057-7.4,13.324-6.662,14.434,8.512,14.434h14.064l-12.214,11.843L103.05,189.309,86.4,173.025,69.74,156.74l11.1-11.473,11.473-11.843-9.623-19.986c-4.811-11.1-9.253-22.207-9.253-24.8,0-2.961-5.922-4.441-16.655-4.441H40.132V36.085h14.8c14.434,0,14.8-.37,25.908-24.8l11.1-24.8-11.1-11.473L69.74-36.456,86.4-52.741,103.05-69.026l8.142,7.772c14.064,12.583,15.915,12.583,41.452,1.11,24.057-11.1,24.427-11.473,24.427-25.908v-14.8h48.114Zm-14.8,38.121,8.883,28.128-8.883,7.032c-11.843,8.883-11.843,8.883-21.836-1.851l-8.512-8.882,8.512-26.278c4.811-14.434,9.623-26.278,10.733-26.278C200.758-74.947,205.57-62.364,210.381-46.819Zm-25.908-5.922c0,7.4-11.1,30.719-13.324,28.5-3.7-3.7-16.285,4.441-16.285,10.363,0,2.961,2.961,6.662,6.292,8.512,5.552,3.331,4.811,7.772-9.623,45.523-8.883,23.317-17.4,43.673-19.246,45.523-1.851,2.221-7.032,0-12.954-5.552-9.623-8.512-9.623-8.512-5.552-.74,2.221,4.441,6.662,9.623,9.993,11.473,4.811,2.591,4.441,5.552-2.961,24.427l-8.142,21.836-8.512-10.733C86.4,103.815,78.993,57.551,88.246,24.241c5.922-21.1,25.907-48.114,45.893-61.438C157.456-52.741,184.474-60.883,184.474-52.741ZM184.1,2.405c4.071,2.591,2.591,6.662-7.772,19.616-7.4,8.513-15.915,20.726-18.875,27.018-8.513,15.915-7.772,5.922,1.48-15.174,4.071-9.993,8.883-21.836,10.733-26.648C173.371-1.666,176.331-2.406,184.1,2.405Zm64.769,154.7c2.961,7.4.37,9.993-15.915,15.544-15.545,5.182-45.893,5.182-64.029.37-15.174-4.441-19.616-8.883-16.285-16.655,1.48-4.441,11.1-5.552,48.114-5.552C239.99,150.818,247.022,151.558,248.872,157.11Zm-93.267,16.285c24.057,9.623,61.068,10.363,84.384,1.48,26.278-9.623,29.609-10.363,29.609-6.292,0,1.851-2.961,4.441-6.292,5.552-34.05,10.733-36.271,12.213-38.121,29.238l-1.851,15.915-22.947,1.11-23.317,1.11V207.074c0-16.655-2.591-19.246-26.648-28.128-16.655-6.292-26.278-13.324-18.135-13.324C134.509,165.622,144.872,169.323,155.605,173.395Z" transform="translate(40.647 181.557)" fill="#ee5e4f"/>
        <path id="Path_4" data-name="Path 4" d="M63-37.6c0,5.181,2.591,7.4,7.772,7.4,5.552,0,7.032-1.48,5.552-5.922a57.87,57.87,0,0,1-2.221-7.4c0-.74-2.59-1.481-5.552-1.481S63-41.669,63-37.6Z" transform="translate(151.018 381.076)" fill="#ee5e4f"/>
        <path id="Path_5" data-name="Path 5" d="M68-37.6c0,4.071,2.221,7.4,4.811,7.4s4.811-3.331,4.811-7.4S75.4-45,72.811-45,68-41.669,68-37.6Z" transform="translate(164.523 381.076)" fill="#ee5e4f"/>
        <path id="Path_6" data-name="Path 6" d="M72-37.6c0,4.071,1.851,7.4,3.7,7.4,2.221,0,3.7-3.331,3.7-7.4S77.922-45,75.7-45C73.851-45,72-41.669,72-37.6Z" transform="translate(175.327 381.076)" fill="#ee5e4f"/>
        <path id="Path_7" data-name="Path 7" d="M76.2-38.814c0,5.181.74,7.032,1.85,4.441a19.536,19.536,0,0,0,0-9.253C76.94-45.846,76.2-44,76.2-38.814Z" transform="translate(186.672 382.293)" fill="#ee5e4f"/>
        <path id="Path_8" data-name="Path 8" d="M18.442-98c.74,3.7,5.182,7.032,9.623,7.772,7.032,1.11,8.512-.37,7.4-5.552-.74-3.7-5.182-7.032-9.623-7.772C18.812-104.657,17.332-103.177,18.442-98Z" transform="translate(29.767 222)" fill="#ee5e4f"/>
        <path id="Path_9" data-name="Path 9" d="M9.876-71.917c-1.48,3.7-.37,7.772,2.591,9.623,7.4,4.441,12.584,1.851,12.584-6.292C25.051-77.469,12.837-80.06,9.876-71.917Z" transform="translate(5.764 295.111)" fill="#ee5e4f"/>
        <path id="Path_10" data-name="Path 10" d="M126.877-64.917c-1.48,3.7-.37,7.772,2.591,9.623,7.4,4.441,12.584,1.85,12.584-6.292C142.051-70.469,129.837-73.06,126.877-64.917Z" transform="translate(321.789 314.018)" fill="#ee5e4f"/>
        <path id="Path_11" data-name="Path 11" d="M122.007-43.651c-2.591,6.662,1.11,12.954,7.772,12.954,7.772,0,10.363-7.032,5.552-12.954C129.409-50.683,124.6-50.683,122.007-43.651Z" transform="translate(308.153 370.475)" fill="#ee5e4f"/>
        <path id="Path_12" data-name="Path 12" d="M22-33.3a3.98,3.98,0,0,0,3.7,3.7,3.709,3.709,0,0,0,3.7-3.7A3.5,3.5,0,0,0,25.7-37,3.709,3.709,0,0,0,22-33.3Z" transform="translate(40.274 402.685)" fill="#ee5e4f"/>
        <path id="Path_13" data-name="Path 13" d="M30.469-26.2a10.575,10.575,0,0,0,6.292,6.292c2.961,1.11,4.441-.37,3.331-3.331A10.575,10.575,0,0,0,33.8-29.531C30.839-30.641,29.359-29.161,30.469-26.2Z" transform="translate(62.153 421.863)" fill="#ee5e4f"/>
        <path id="Path_14" data-name="Path 14" d="M28.942-23.3c1.11,1.851,4.071,3.7,5.922,3.7,2.221,0,2.591-1.851,1.48-3.7A7.548,7.548,0,0,0,30.423-27C28.2-27,27.832-25.52,28.942-23.3Z" transform="translate(57.388 429.695)" fill="#ee5e4f"/>
        <path id="Path_15" data-name="Path 15" d="M64.766-11.3c-1.11,1.851.37,3.7,3.7,3.7s4.811-1.851,3.7-3.7c-1.11-2.221-2.961-3.7-3.7-3.7S65.876-13.52,64.766-11.3Z" transform="translate(154.803 462.108)" fill="#ee5e4f"/>
      </g>
      <path id="Path_16" data-name="Path 16" d="M633.727,409.842l26.619-25.777-3.862,15.126,39.809-47.337,1.155,10.944,48.8-64.061-41.541,36.737,3.988-16.254-43.526,49.2,1.255-16.568Z" transform="translate(-401.117 -162.292)" fill="#ee5e4f"/>
    </g>
    <text id="BAGUIO_COLLEGE" data-name="BAGUIO COLLEGE" transform="translate(-5593 -7534)" fill="#ee5e4f" font-size="187" font-family="Poppins-Bold, Poppins" font-weight="700" letter-spacing="0.03em"><tspan x="0" y="0">BAGUIO COLLEGE</tspan></text>
    <text id="OF_TECHNOLOGY" data-name="OF TECHNOLOGY" transform="translate(-5593 -7320)" fill="#ee5e4f" font-size="187" font-family="Poppins-Bold, Poppins" font-weight="700" letter-spacing="0.03em"><tspan x="0" y="0">OF TECHNOLOGY</tspan></text>
  </g>
</svg>
