<svg xmlns="http://www.w3.org/2000/svg" width="512.152" height="512" viewBox="0 0 512.152 512">
  <g id="printer" transform="translate(0.076 512)">
    <path id="Path_858" data-name="Path 858" d="M97.8-509.9A14.339,14.339,0,0,0,92-504c-1.9,3.7-2,5.8-2,43v39H81.1a107.228,107.228,0,0,0-14.2,1A45.484,45.484,0,0,0,31-385.1c-.5,3-1,16.7-1,30.5v25.1l-6.5,3.4c-10.9,5.6-19.7,17.4-22.4,29.9C-.4-289.2-.5-104.7,1-96.9A45.484,45.484,0,0,0,36.9-61c3,.5,16.1,1,29.2,1H90v24c0,22.2.2,24.4,2,28a13.4,13.4,0,0,0,6,6c3.9,2,5.6,2,158,2S410.1,0,414-2a13.4,13.4,0,0,0,6-6c1.8-3.6,2-5.8,2-28V-60h23.9c13.1,0,26.2-.5,29.2-1A45.484,45.484,0,0,0,511-96.9c1.5-7.8,1.4-192.3-.1-199.3-2.7-12.5-11.5-24.3-22.4-29.9l-6.5-3.4v-25.1c0-13.8-.5-27.5-1-30.5A45.484,45.484,0,0,0,445.1-421a153.265,153.265,0,0,0-18.5-1H413.5l-43-43.1c-23.7-23.7-44.7-43.9-46.7-45-3.6-1.8-6.9-1.9-113-1.9C104-511.9,101.4-511.9,97.8-509.9ZM302-443c0,37.2.1,39.3,2,43a13.4,13.4,0,0,0,6,6c3.7,1.9,5.8,2,43,2h39v60H120V-482H302Zm49.5,2,19,19H332v-19c0-10.5.1-19,.3-19C332.4-460,341.1-451.5,351.5-441ZM90-362v30H60v-24c0-22.2.2-24.4,2-28,3.1-6,7.5-7.9,18.8-8H90Zm354-28a13.4,13.4,0,0,1,6,6c1.8,3.6,2,5.8,2,28v24H422v-60h9C438.1-392,440.9-391.6,444-390Zm30,90a13.4,13.4,0,0,1,6,6c2,3.8,2,5.7,2,98s0,94.2-2,98a13.4,13.4,0,0,1-6,6c-3.6,1.8-5.8,2-28,2H422v-90h9c7.1,0,9.9-.4,13-2a15.784,15.784,0,0,0,8-13,15.784,15.784,0,0,0-8-13c-3.9-2-5.5-2-188-2s-184.1,0-188,2a15.784,15.784,0,0,0-8,13,15.784,15.784,0,0,0,8,13c3.1,1.6,5.9,2,13,2h9v90H66c-22.2,0-24.4-.2-28-2a13.4,13.4,0,0,1-6-6c-2-3.8-2-5.7-2-98s0-94.2,2-98a14.339,14.339,0,0,1,5.8-5.9c3.6-2,6.6-2,218-2.1C468.6-302,470.1-302,474-300ZM392-105v75H120V-180H392Z" fill="#fff"/>
    <path id="Path_859" data-name="Path 859" d="M67.8-269.9c-4.3,2.2-7.8,8.1-7.8,12.9a15.784,15.784,0,0,0,8,13c3.5,1.8,5.9,2,22,2,21,0,24.4-1,28-8,2.5-5,2.5-9,0-14-3.6-7.1-6.9-8-28.2-8C73.6-271.9,71.1-271.7,67.8-269.9Z" fill="#fff"/>
    <path id="Path_860" data-name="Path 860" d="M157.8-147.9c-4.3,2.2-7.8,8.1-7.8,12.9a15.784,15.784,0,0,0,8,13c3.8,2,5.7,2,98,2s94.2,0,98-2a15.784,15.784,0,0,0,8-13,15.784,15.784,0,0,0-8-13c-3.8-2-5.6-2-98.2-2C163.9-149.9,161.4-149.9,157.8-147.9Z" fill="#fff"/>
    <path id="Path_861" data-name="Path 861" d="M157.8-87.9c-4.3,2.2-7.8,8.1-7.8,12.9a15.784,15.784,0,0,0,8,13c3.8,2,5.7,2,98,2s94.2,0,98-2a15.784,15.784,0,0,0,8-13,15.784,15.784,0,0,0-8-13c-3.8-2-5.6-2-98.2-2C163.9-89.9,161.4-89.9,157.8-87.9Z" fill="#fff"/>
  </g>
</svg>
